<?xml version="1.0" standalone="no"?>
<!DOCTYPE svg PUBLIC "-//W3C//DTD SVG 20010904//EN"
 "http://www.w3.org/TR/2001/REC-SVG-20010904/DTD/svg10.dtd">
<svg version="1.0" xmlns="http://www.w3.org/2000/svg"
 width="260.000000pt" height="260.000000pt" viewBox="0 0 260.000000 260.000000"
 preserveAspectRatio="xMidYMid meet">
<metadata>
Created by potrace 1.14, written by Peter Selinger 2001-2017
</metadata>
<g transform="translate(0.000000,260.000000) scale(0.100000,-0.100000)"
fill="#000000" stroke="none">
<path d="M958 2542 c-10 -2 -38 -14 -63 -28 -25 -13 -54 -24 -64 -24 -10 0
-30 -9 -44 -20 -14 -11 -31 -20 -39 -20 -8 0 -27 -13 -43 -30 -16 -16 -25 -30
-20 -30 4 0 0 -9 -9 -19 -12 -13 -14 -21 -6 -26 8 -5 6 -15 -6 -33 -9 -15 -11
-21 -3 -14 7 6 24 12 38 12 23 0 22 -1 -12 -27 -20 -16 -36 -34 -37 -41 0 -7
-7 -15 -15 -18 -8 -4 -15 -14 -15 -23 0 -9 -21 -31 -45 -50 -25 -18 -42 -37
-39 -42 3 -5 2 -14 -2 -20 -4 -8 -9 -7 -14 2 -6 9 -12 9 -25 -4 -15 -15 -15
-17 -1 -17 17 0 21 -12 9 -24 -4 -4 -6 -22 -4 -41 2 -24 -3 -39 -18 -52 -25
-21 -29 -55 -6 -46 9 3 31 38 50 77 18 39 45 88 59 109 15 21 24 42 21 47 -6
10 20 32 29 23 3 -4 20 8 36 25 23 26 37 32 70 32 37 0 151 32 175 49 6 4 26
8 45 10 19 2 41 8 49 14 7 6 41 12 75 13 112 3 210 16 224 30 16 16 32 18 32
4 0 -5 7 -7 15 -4 31 12 162 -40 230 -91 40 -30 115 -127 115 -148 0 -10 5
-17 10 -17 6 0 10 -9 10 -19 0 -11 4 -22 9 -25 5 -3 12 -27 15 -53 4 -27 9
-56 12 -65 4 -12 -2 -19 -21 -24 -21 -5 -26 -11 -22 -30 2 -15 -2 -25 -12 -30
-14 -5 -13 -7 4 -14 22 -9 22 -9 -53 -14 -29 -2 -55 1 -58 5 -3 5 -10 9 -15 9
-5 0 -3 -13 6 -30 10 -19 20 -27 30 -24 10 4 15 0 15 -15 0 -15 11 -27 33 -37
17 -8 22 -13 11 -11 -12 3 -57 1 -99 -3 -43 -4 -89 -4 -104 0 l-26 8 30 2 30
2 -30 9 c-16 5 -84 10 -151 12 -94 1 -125 -1 -139 -13 -9 -8 -24 -15 -33 -16
-8 -2 -18 -7 -21 -12 -3 -5 -17 -13 -29 -17 -13 -4 -33 -16 -43 -26 -10 -10
-26 -19 -34 -19 -8 0 -15 -5 -15 -11 0 -12 -36 -9 -144 14 -39 8 -82 11 -100
7 -33 -7 -148 -69 -131 -71 14 -1 -28 -18 -96 -39 l-57 -18 -17 70 c-16 67
-16 201 0 227 3 6 1 11 -5 11 -7 0 -5 9 4 22 9 12 16 26 16 31 0 14 -21 -4
-42 -37 l-20 -31 6 35 c8 57 17 93 28 117 16 33 3 39 -18 8 -39 -59 -46 -227
-18 -384 15 -81 15 -84 -5 -98 -28 -19 -26 -33 9 -73 16 -18 40 -60 52 -92 13
-33 35 -74 50 -91 l27 -32 -23 50 c-30 64 -46 121 -46 166 0 50 37 84 118 109
75 22 92 20 32 -4 l-40 -16 0 -84 c0 -77 2 -85 21 -91 14 -5 31 0 50 14 18 13
30 17 34 10 4 -6 -1 -16 -10 -23 -15 -11 -15 -13 -1 -25 41 -34 193 15 232 75
9 13 18 23 20 21 4 -4 -12 -108 -22 -140 l-6 -22 16 21 c9 12 28 64 42 115 30
107 37 119 70 119 18 0 33 -13 57 -47 17 -25 52 -73 76 -106 42 -57 44 -60 26
-73 -18 -14 -18 -14 2 -14 27 0 73 -37 73 -59 0 -28 -49 -40 -85 -20 -28 16
-33 16 -80 1 -27 -10 -56 -21 -64 -26 -8 -5 -32 -11 -53 -13 -26 -2 -46 -11
-58 -26 -15 -18 -21 -20 -32 -9 -10 10 -10 21 4 58 l16 45 -34 -38 c-18 -21
-37 -49 -40 -63 -4 -13 -22 -45 -41 -71 -18 -26 -33 -53 -33 -62 0 -9 -4 -19
-10 -22 -6 -3 -10 -15 -10 -26 0 -11 5 -17 10 -14 6 3 10 1 10 -5 0 -6 15 -26
34 -45 l35 -35 58 11 c32 5 81 15 108 21 28 6 70 12 95 13 25 1 67 6 94 10 34
5 50 4 56 -5 6 -9 12 -9 29 0 31 16 101 22 101 9 0 -6 -7 -8 -16 -5 -9 3 -12
2 -8 -5 3 -6 -4 -21 -17 -35 -12 -13 -20 -26 -17 -29 9 -9 54 12 83 39 15 14
36 26 47 26 18 0 26 13 60 98 7 17 15 32 18 32 3 0 11 -13 18 -30 13 -29 12
-39 -16 -120 -3 -8 -6 -26 -7 -40 -2 -23 -27 -81 -59 -138 -18 -31 -52 -62
-69 -62 -8 0 -26 -9 -40 -20 -14 -11 -28 -16 -31 -12 -3 5 -28 -1 -55 -14 -34
-16 -70 -25 -118 -26 -53 -2 -71 -7 -84 -23 -14 -16 -19 -17 -33 -6 -13 11
-19 11 -31 1 -8 -7 -15 -8 -15 -3 0 5 -13 10 -28 10 -19 0 -32 -7 -38 -21 -5
-12 -17 -20 -29 -19 -18 1 -17 -1 6 -20 110 -93 140 -119 196 -175 35 -35 63
-69 63 -76 0 -8 10 -20 21 -28 19 -12 20 -16 8 -36 -7 -11 -10 -25 -5 -29 4
-4 89 -8 189 -8 198 1 279 15 388 70 45 23 96 81 83 94 -3 3 -8 1 -12 -5 -15
-22 -78 -15 -71 9 0 1 -4 14 -10 29 -8 22 -6 31 10 51 23 30 25 51 4 43 -20
-7 -20 18 0 34 9 7 14 19 11 26 -3 7 1 15 9 18 8 3 17 21 20 40 4 19 15 42 26
52 10 9 29 37 41 63 12 25 28 52 35 59 7 7 13 24 13 37 0 13 5 36 11 52 l11
28 14 -25 14 -25 -6 29 c-4 16 -7 71 -8 122 -1 77 2 95 18 113 19 21 19 21 -2
22 -41 3 -45 4 -56 21 -8 13 -8 23 2 38 6 11 12 29 12 40 0 11 6 23 14 26 8 3
16 17 19 32 13 64 63 83 52 20 -4 -21 -2 -29 7 -26 7 3 13 13 13 24 0 10 4 22
10 26 5 4 10 19 11 35 2 47 19 31 22 -21 4 -55 -16 -86 -55 -86 -17 0 -27 -7
-30 -20 -4 -15 -11 -19 -24 -15 -28 9 -23 -16 6 -38 14 -10 25 -13 25 -8 0 6
9 15 20 21 27 15 25 6 -6 -25 -31 -31 -28 -41 5 -18 30 21 84 139 83 181 -1
17 3 32 9 32 6 0 7 -6 3 -13 -5 -8 -4 -9 4 -2 6 6 14 24 17 40 5 23 4 26 -4
15 -9 -13 -11 -13 -11 2 0 9 5 28 11 41 14 30 -4 122 -28 149 -21 23 -38 23
-73 -2 -25 -18 -29 -18 -34 -4 -9 22 -1 31 39 44 l35 12 -6 131 c-6 152 -17
213 -50 279 -13 26 -24 52 -24 58 0 10 -51 86 -92 138 -63 77 -170 170 -239
206 -41 21 -83 47 -94 56 -19 17 -57 33 -80 35 -5 0 -25 8 -42 18 -18 10 -33
16 -33 13 0 -2 -28 3 -62 10 -74 16 -108 17 -108 6 0 -5 13 -9 30 -10 16 0 35
-4 42 -9 7 -4 18 -8 23 -8 24 -2 92 -26 110 -39 17 -13 13 -13 -30 0 -27 9
-58 18 -67 21 -11 3 -18 0 -18 -7 0 -9 -7 -7 -20 5 -11 10 -23 15 -27 12 -3
-4 -11 -2 -18 3 -7 5 -25 11 -41 13 -17 2 -36 7 -42 11 -18 11 -203 42 -224
38z m158 -47 c25 -19 15 -19 -27 0 -25 10 -29 14 -13 15 11 0 29 -7 40 -15z
m-406 -228 c0 -2 -12 -14 -27 -28 l-28 -24 24 28 c23 25 31 32 31 24z m1051
-54 c13 -17 13 -17 -6 -3 -11 8 -22 16 -24 17 -2 2 0 3 6 3 6 0 17 -8 24 -17z
m-12 -539 c14 -12 -19 -1 -35 12 -18 14 -18 14 6 3 14 -6 27 -13 29 -15z
m-183 -36 c4 -7 4 -10 -1 -6 -4 4 -17 2 -29 -4 -19 -10 -20 -10 -7 5 16 20 27
21 37 5z m124 -13 c24 -14 24 -14 3 -15 -12 0 -25 5 -28 10 -4 6 -11 7 -17 4
-7 -4 -8 -2 -4 4 9 15 15 15 46 -3z m-303 -37 c-3 -8 -6 -5 -6 6 -1 11 2 17 5
13 3 -3 4 -12 1 -19z m-410 -24 c-3 -3 -12 -4 -19 -1 -8 3 -5 6 6 6 11 1 17
-2 13 -5z m616 -106 c-2 -24 -11 -62 -18 -86 -8 -23 -10 -40 -4 -37 15 10 47
78 55 120 6 33 8 36 19 22 7 -10 19 -17 26 -17 8 0 20 -13 26 -29 7 -19 17
-29 29 -28 28 3 26 -40 -2 -68 -14 -14 -21 -30 -18 -39 3 -9 1 -16 -5 -16 -6
0 -11 -6 -11 -13 0 -7 -9 -23 -21 -36 -20 -21 -22 -21 -34 -4 -12 16 -17 16
-35 5 -12 -7 -39 -14 -61 -14 -36 0 -39 -2 -39 -29 0 -16 -4 -29 -10 -29 -5 0
-7 6 -4 14 7 18 -15 31 -28 18 -12 -12 -68 11 -68 28 0 5 -18 14 -40 20 -22 6
-39 16 -37 22 1 6 -13 15 -31 19 -38 8 -87 50 -108 94 l-15 30 20 -25 c25 -31
35 -23 16 14 -20 38 -20 39 17 20 42 -22 260 -26 279 -6 7 6 22 12 34 12 28 1
55 23 55 47 0 17 8 33 16 33 1 0 0 -19 -3 -42z m107 32 c0 -5 -5 -10 -11 -10
-5 0 -7 5 -4 10 3 6 8 10 11 10 2 0 4 -4 4 -10z m247 -212 c-3 -12 -12 -31
-19 -40 -11 -15 -13 -9 -15 44 l-2 62 21 -21 c14 -15 19 -28 15 -45z m-574
-193 c9 -8 13 -23 10 -34 -4 -15 -12 -19 -34 -16 -16 2 -29 -1 -29 -6 0 -5 -6
-9 -13 -9 -8 0 -12 14 -12 40 0 38 1 40 32 40 17 0 38 -7 46 -15z m54 -28 c-6
-20 -27 -19 -27 2 0 14 5 19 15 14 9 -3 14 -10 12 -16z m-477 -7 c12 -8 13
-13 3 -30 -7 -11 -13 -24 -13 -28 0 -14 36 -52 49 -52 6 0 11 -9 11 -19 0 -15
-13 -24 -55 -37 -61 -19 -73 -16 -54 15 16 24 9 33 -25 35 -29 1 -32 8 -13 28
8 7 17 25 20 40 12 48 45 69 77 48z m870 -814 c0 -3 -4 -8 -10 -11 -5 -3 -10
-1 -10 4 0 6 5 11 10 11 6 0 10 -2 10 -4z"/>
<path d="M1705 1360 c-3 -5 1 -10 10 -10 9 0 13 5 10 10 -3 6 -8 10 -10 10 -2
0 -7 -4 -10 -10z"/>
<path d="M580 2275 c-8 -9 -8 -15 -2 -15 12 0 26 19 19 26 -2 2 -10 -2 -17
-11z"/>
<path d="M1620 2060 c0 -5 5 -10 10 -10 6 0 10 5 10 10 0 6 -4 10 -10 10 -5 0
-10 -4 -10 -10z"/>
<path d="M533 1470 c-3 -11 -10 -17 -16 -13 -7 4 -8 -6 -4 -30 7 -42 1 -48
-13 -14 -9 20 -10 20 -7 -7 1 -16 9 -32 17 -36 8 -4 25 -12 38 -19 23 -12 23
-11 18 31 -2 24 -5 58 -5 76 -1 35 -20 44 -28 12z"/>
<path d="M460 1215 c0 -17 56 -145 63 -145 3 0 3 28 0 63 -4 45 -10 67 -25 80
-25 21 -38 22 -38 2z"/>
<path d="M1190 863 c-8 -3 -22 -7 -30 -10 -8 -4 -21 -5 -28 -4 -7 1 -21 -8
-32 -21 -21 -26 -11 -38 32 -38 21 0 27 -5 30 -27 5 -41 30 -43 26 -2 -3 31 0
34 27 39 31 5 75 30 75 42 0 4 -7 5 -16 1 -10 -3 -22 0 -28 8 -12 15 -31 19
-56 12z"/>
<path d="M1266 813 c-11 -11 -6 -23 9 -23 8 0 15 4 15 9 0 13 -16 22 -24 14z"/>
<path d="M770 766 c0 -8 5 -18 10 -21 6 -3 10 1 10 9 0 8 -4 18 -10 21 -5 3
-10 -1 -10 -9z"/>
<path d="M1845 300 c4 -6 11 -8 16 -5 14 9 11 15 -7 15 -8 0 -12 -5 -9 -10z"/>
</g>
</svg>
